<svg xmlns="http://www.w3.org/2000/svg" xmlns:xlink="http://www.w3.org/1999/xlink" width="1123" zoomAndPan="magnify" viewBox="0 0 842.25 595.499986" height="794" preserveAspectRatio="xMidYMid meet" version="1.0"><defs><clipPath id="ec3ff2c908"><rect x="0" width="834" y="0" height="427"/></clipPath></defs><g transform="matrix(1, 0, 0, 1, 0, 84)"><g clip-path="url(#ec3ff2c908)"><path fill="#fb810c" d="M 430.5625 169.5625 C 438.105469 172.851562 443.953125 176.777344 448.960938 183.332031 C 450.417969 185.445312 451.363281 187.464844 452.210938 189.886719 L 452.894531 191.507812 C 454.863281 196.378906 455.433594 200.585938 455.339844 205.816406 L 455.3125 208.039062 C 455.179688 213.28125 454.582031 217.789062 452.210938 222.527344 L 451.171875 224.691406 C 449.261719 228.4375 449.261719 228.4375 448.046875 230.167969 L 445.960938 230.863281 C 445.480469 232.011719 445.019531 233.171875 444.570312 234.335938 C 438.6875 242.347656 430.082031 248.058594 421.648438 253.085938 L 419.289062 254.527344 C 407.359375 261.648438 394.074219 266.875 380.664062 270.449219 L 378.582031 270.449219 C 380.785156 274.957031 383.820312 278.28125 387.609375 281.558594 C 389.003906 282.460938 390.226562 283.046875 391.777344 283.644531 L 391.777344 285.03125 C 392.820312 285.351562 393.863281 285.671875 394.90625 285.988281 L 396.664062 286.523438 C 408.070312 289.796875 419.128906 289.78125 430.679688 287.117188 C 439.316406 284.777344 447.914062 281.890625 455.6875 277.394531 C 455.289062 273.839844 453.578125 271.085938 451.867188 268.015625 C 451.289062 266.984375 450.71875 265.949219 450.152344 264.914062 L 449.382812 263.539062 C 448.652344 261.921875 448.332031 260.382812 448.046875 258.640625 C 456.792969 258.339844 465.472656 259.246094 474.179688 259.988281 C 477.9375 260.304688 481.691406 260.617188 485.449219 260.929688 C 490.617188 261.347656 495.785156 261.667969 500.964844 261.878906 C 503.316406 261.980469 505.53125 262.09375 507.785156 262.808594 C 507.386719 265.289062 506.757812 267.136719 505.492188 269.296875 L 504.488281 271.03125 L 503.398438 272.878906 L 501.105469 276.835938 L 499.917969 278.871094 C 498.140625 281.929688 496.378906 284.996094 494.628906 288.070312 L 493.605469 289.859375 C 490.167969 295.886719 486.746094 301.921875 483.34375 307.964844 C 481.773438 310.746094 480.195312 313.515625 478.609375 316.285156 C 477.332031 316.117188 477.332031 316.117188 475.832031 315.589844 C 474.878906 314.320312 474.878906 314.320312 474.039062 312.683594 L 473.117188 310.90625 L 472.183594 309.035156 L 471.21875 307.171875 C 468.882812 302.613281 468.882812 302.613281 468.882812 301.003906 C 468 301.351562 467.117188 301.699219 466.234375 302.046875 L 464.296875 302.8125 C 462.550781 303.53125 460.820312 304.28125 459.097656 305.058594 C 450.550781 308.875 441.902344 311.480469 432.761719 313.507812 L 430.980469 313.917969 C 425.320312 315.105469 419.679688 315.171875 413.921875 315.15625 L 412.378906 315.152344 C 398.527344 315.089844 386.601562 311.78125 374.417969 305.085938 L 372.328125 303.785156 L 371.632812 302.394531 L 369.550781 301.699219 L 368.855469 300.3125 L 366.773438 299.617188 C 365.542969 298.496094 364.429688 297.359375 363.296875 296.144531 L 361.878906 294.6875 C 356.394531 288.882812 352.640625 282.203125 348.710938 275.308594 L 346.140625 275.332031 C 328.160156 275.453125 328.160156 275.453125 325.09375 273.921875 L 325.105469 276.652344 C 325.117188 279.980469 325.125 283.3125 325.132812 286.640625 C 325.136719 288.085938 325.140625 289.527344 325.144531 290.972656 C 325.152344 293.042969 325.160156 295.113281 325.160156 297.183594 L 325.171875 299.152344 L 325.171875 300.964844 L 325.175781 302.566406 L 325.09375 303.785156 L 324.398438 304.476562 L 298.695312 304.476562 L 298.695312 183.636719 L 324.398438 183.636719 L 325.09375 184.332031 C 325.160156 186.316406 325.179688 188.289062 325.171875 190.277344 L 325.171875 192.164062 C 325.171875 194.234375 325.167969 196.304688 325.160156 198.375 L 325.15625 202.671875 C 325.15625 206.445312 325.148438 210.222656 325.140625 213.996094 C 325.132812 217.847656 325.128906 221.695312 325.128906 225.546875 C 325.121094 233.105469 325.109375 240.664062 325.09375 248.222656 L 331.113281 248.5625 L 332.828125 248.660156 C 356.171875 249.96875 378.65625 245.378906 399.648438 235.113281 C 406.289062 231.746094 412.40625 227.929688 418.175781 223.222656 L 419.976562 221.761719 C 423.765625 218.332031 426.253906 214.160156 427.898438 209.332031 C 428.429688 206.421875 428.527344 203.898438 427.898438 201 C 426.824219 198.9375 425.5625 197.558594 423.734375 196.136719 C 420.324219 194.050781 417.25 193.351562 413.3125 193.1875 C 407.398438 193.292969 401.84375 194.664062 396.640625 197.484375 C 389.855469 201.75 383.6875 207.238281 379.65625 214.222656 L 378.582031 216.277344 L 377.308594 218.65625 C 374.644531 223.867188 372.945312 228.941406 371.925781 234.710938 C 371.648438 236.148438 371.648438 236.148438 370.941406 238.5 C 368.839844 239.921875 366.777344 240.179688 364.292969 240.457031 C 363.554688 240.542969 362.816406 240.632812 362.058594 240.71875 L 359.738281 240.976562 C 358.21875 241.148438 356.695312 241.324219 355.175781 241.5 L 353.132812 241.726562 C 351.480469 241.890625 351.480469 241.890625 350.101562 242.667969 C 348.230469 242.796875 346.421875 242.726562 344.542969 242.667969 L 343.847656 241.972656 C 343.40625 230.21875 347.640625 217.523438 352.902344 207.125 C 359.816406 194.121094 369.71875 183.414062 382.144531 175.507812 C 395.886719 167.128906 415.207031 163.429688 430.5625 169.5625 " fill-opacity="1" fill-rule="nonzero"/><path fill="#95a8d8" d="M 188.25 183.636719 C 189.976562 183.558594 191.683594 183.527344 193.414062 183.527344 L 195.050781 183.515625 C 196.855469 183.503906 198.65625 183.5 200.457031 183.496094 L 204.222656 183.484375 C 206.863281 183.476562 209.5 183.472656 212.140625 183.46875 C 215.503906 183.464844 218.863281 183.449219 222.222656 183.429688 C 224.820312 183.417969 227.417969 183.414062 230.015625 183.414062 C 231.25 183.410156 232.488281 183.40625 233.726562 183.394531 C 244.214844 183.324219 253.730469 184.488281 263.117188 189.539062 C 268.585938 192.789062 272.507812 196.441406 275.757812 201.925781 C 280 209.746094 281.007812 216.867188 280.8125 225.660156 C 280.570312 231.355469 279.394531 237.015625 276.628906 242.042969 C 275.230469 244.195312 273.675781 246.210938 272.054688 248.203125 C 271.199219 249.265625 270.382812 250.359375 269.609375 251.480469 C 267.394531 253.890625 264.730469 255.652344 261.878906 257.253906 L 260.492188 257.253906 L 261.535156 259.34375 L 262.21875 260.710938 L 263.726562 263.71875 C 264.949219 266.160156 266.164062 268.601562 267.378906 271.046875 L 268.609375 273.53125 L 269.703125 275.742188 C 270.90625 278.078125 272.167969 280.375 273.449219 282.667969 C 274.40625 284.378906 275.351562 286.097656 276.296875 287.816406 L 277.269531 289.585938 L 279.234375 293.167969 L 280.203125 294.933594 L 281.136719 296.628906 C 281.957031 298.097656 282.792969 299.554688 283.648438 301 C 284.804688 303.089844 284.804688 303.089844 284.804688 304.476562 C 280.710938 304.617188 276.621094 304.714844 272.53125 304.785156 C 271.136719 304.8125 269.746094 304.847656 268.355469 304.898438 C 266.355469 304.960938 264.351562 305 262.351562 305.019531 L 260.46875 305.105469 C 258.695312 305.109375 257.3125 305.046875 255.628906 304.476562 C 254.023438 302.820312 253.113281 301.003906 252.15625 298.921875 L 251.148438 297.191406 C 250.25 295.570312 249.355469 293.949219 248.464844 292.324219 L 247.453125 290.484375 C 245.679688 287.238281 243.953125 283.976562 242.316406 280.65625 C 241.875 279.757812 241.417969 278.863281 240.957031 277.972656 C 239.523438 275.203125 238.34375 272.335938 237.414062 269.359375 C 235.625 265.652344 235.625 265.652344 232.707031 262.808594 C 229.613281 262.105469 226.589844 262.125 223.429688 262.15625 L 220.875 262.121094 C 218.796875 262.097656 216.722656 262.097656 214.644531 262.113281 L 214.648438 263.691406 C 214.664062 268.585938 214.675781 273.480469 214.679688 278.378906 C 214.683594 280.894531 214.691406 283.410156 214.695312 285.929688 C 214.703125 288.355469 214.707031 290.78125 214.710938 293.210938 C 214.714844 294.589844 214.71875 295.972656 214.722656 297.351562 L 214.722656 299.878906 L 214.726562 302.117188 L 214.644531 303.785156 L 213.949219 304.476562 C 212.054688 304.546875 210.179688 304.574219 208.285156 304.570312 L 206.5625 304.574219 C 205.359375 304.574219 204.15625 304.570312 202.953125 304.566406 C 201.105469 304.566406 199.257812 304.566406 197.410156 304.574219 C 196.246094 304.574219 195.078125 304.570312 193.914062 304.570312 L 192.226562 304.574219 C 190.902344 304.5625 189.574219 304.53125 188.25 304.476562 L 187.554688 303.785156 C 187.484375 302.246094 187.464844 300.707031 187.464844 299.171875 L 187.460938 297.691406 C 187.460938 296.042969 187.460938 294.398438 187.464844 292.75 L 187.460938 289.222656 C 187.457031 286.019531 187.457031 282.816406 187.460938 279.617188 C 187.460938 276.269531 187.460938 272.925781 187.460938 269.582031 C 187.457031 263.96875 187.460938 258.351562 187.464844 252.734375 C 187.464844 246.230469 187.464844 239.726562 187.460938 233.222656 C 187.457031 227.652344 187.457031 222.078125 187.460938 216.503906 C 187.460938 213.171875 187.460938 209.839844 187.460938 206.507812 C 187.457031 203.371094 187.457031 200.238281 187.460938 197.109375 C 187.460938 195.953125 187.460938 194.800781 187.460938 193.648438 C 187.460938 192.078125 187.460938 190.511719 187.464844 188.945312 L 187.464844 186.28125 L 187.554688 184.332031 Z M 214.644531 205.859375 C 213.84375 207.464844 213.863281 208.382812 213.859375 210.167969 L 213.855469 211.996094 L 213.859375 213.972656 L 213.855469 216 C 213.855469 217.421875 213.855469 218.839844 213.859375 220.257812 C 213.863281 222.429688 213.859375 224.597656 213.855469 226.769531 C 213.855469 228.144531 213.855469 229.523438 213.859375 230.902344 L 213.855469 232.871094 L 213.859375 234.710938 L 213.863281 236.324219 C 213.949219 237.824219 214.230469 239.144531 214.644531 240.585938 C 217.964844 240.652344 221.289062 240.707031 224.613281 240.738281 C 225.738281 240.75 226.867188 240.769531 227.992188 240.796875 C 234.027344 240.921875 239.410156 240.949219 245.101562 238.664062 C 247.886719 237.074219 249.738281 234.921875 251.460938 232.25 C 253.257812 229.160156 253.714844 226.167969 253.890625 222.617188 C 253.785156 218.910156 252.980469 216.15625 251.152344 212.941406 C 249.480469 210.582031 247.652344 208.800781 245.210938 207.25 C 239.34375 204.683594 232.945312 205.058594 226.671875 205.078125 L 224.097656 205.070312 L 221.625 205.074219 L 219.382812 205.078125 C 217.667969 205.15625 216.253906 205.269531 214.644531 205.859375 M 139.277344 187.285156 C 140.554688 187.910156 141.832031 188.542969 143.097656 189.191406 L 143.097656 190.582031 L 144.964844 191.097656 C 150.253906 193.105469 154.433594 198.152344 158.019531 202.425781 C 164.179688 210.332031 168.191406 220.089844 169.898438 229.941406 C 171.539062 243.042969 171.503906 257.351562 166.714844 269.753906 L 166.230469 271.101562 C 162.585938 281.203125 156.050781 289.21875 147.960938 296.144531 C 142.488281 300.421875 136.601562 302.851562 129.898438 304.476562 L 127.9375 305.011719 C 122.335938 306.453125 117.214844 306.855469 111.445312 306.605469 L 108.890625 306.496094 C 99.402344 305.953125 90.816406 303.835938 82.574219 299.050781 C 74.308594 293.472656 67.386719 286.503906 62.691406 277.652344 C 56.683594 264.902344 54.710938 251.125 55.570312 237.113281 C 56.613281 225.3125 60.378906 214.03125 67.113281 204.226562 C 73.308594 195.933594 80.679688 190.246094 89.972656 185.765625 C 105.136719 179.261719 124.5 180.480469 139.277344 187.285156 M 95.023438 210.941406 C 93.601562 212.09375 93.601562 212.09375 93.082031 214.195312 L 91.824219 214.710938 C 90.089844 215.554688 90.089844 215.554688 88.890625 217.734375 C 83.886719 227.15625 82.261719 236.386719 82.511719 246.992188 C 82.980469 255.058594 84.378906 263.1875 88.636719 270.195312 C 89.796875 271.746094 91.046875 273.21875 92.386719 274.613281 L 93.691406 275.976562 C 97.035156 279.171875 100.527344 280.8125 104.890625 282.253906 L 106.976562 282.949219 C 112.457031 283.453125 118.816406 283.804688 124.039062 281.90625 C 129.128906 279.371094 133.386719 275.800781 136.757812 271.230469 C 141.625 263.679688 143.230469 255.433594 143.992188 246.589844 C 144.207031 238.835938 143.34375 229.476562 139.730469 222.488281 L 138.929688 221.140625 L 137.996094 219.550781 C 135.273438 215.21875 132.363281 211.503906 127.929688 208.851562 C 122.886719 206.222656 117.921875 204.0625 112.109375 204.257812 C 105.6875 205.085938 100.234375 207.125 95.023438 210.941406 " fill-opacity="1" fill-rule="nonzero"/><path fill="#24367e" d="M 584.195312 183.636719 C 587.941406 183.621094 591.6875 183.605469 595.433594 183.597656 C 596.710938 183.59375 597.984375 183.589844 599.261719 183.585938 C 601.089844 183.574219 602.917969 183.574219 604.75 183.570312 L 606.488281 183.558594 C 607.855469 183.558594 609.222656 183.59375 610.589844 183.636719 L 611.285156 184.332031 C 611.355469 185.339844 611.375 186.351562 611.378906 187.359375 L 611.386719 189.34375 L 611.386719 191.535156 L 611.390625 193.832031 C 611.398438 195.484375 611.402344 197.136719 611.402344 198.792969 C 611.410156 201.414062 611.417969 204.035156 611.433594 206.65625 C 611.46875 214.117188 611.5 221.574219 611.511719 229.035156 C 611.519531 233.59375 611.539062 238.148438 611.570312 242.707031 C 611.578125 244.441406 611.582031 246.175781 611.578125 247.90625 C 611.273438 260.550781 611.273438 260.550781 614.757812 272.53125 C 616.839844 275.78125 618.929688 277.964844 622.269531 279.933594 C 627.980469 282.496094 633.640625 282.9375 639.800781 282.425781 C 644.179688 281.875 647.972656 280.296875 651.488281 277.652344 C 654.214844 275.058594 655.851562 271.871094 657.132812 268.363281 C 658.488281 263.632812 658.734375 259.101562 658.742188 254.199219 L 658.765625 251.878906 C 658.785156 249.363281 658.796875 246.851562 658.808594 244.335938 C 658.824219 242.585938 658.835938 240.835938 658.851562 239.085938 C 658.882812 234.960938 658.910156 230.835938 658.929688 226.710938 C 658.957031 222.011719 658.992188 217.3125 659.027344 212.613281 C 659.097656 202.957031 659.160156 193.296875 659.214844 183.636719 L 685.613281 183.636719 C 685.644531 194.472656 685.667969 205.308594 685.683594 216.148438 C 685.691406 221.179688 685.703125 226.210938 685.71875 231.242188 C 685.730469 235.632812 685.742188 240.019531 685.742188 244.410156 C 685.746094 246.730469 685.75 249.050781 685.757812 251.375 C 685.769531 253.972656 685.769531 256.570312 685.769531 259.167969 L 685.785156 261.472656 C 685.761719 270.035156 683.953125 278.050781 679.664062 285.542969 C 675.40625 291.902344 670.328125 296.917969 663.597656 300.613281 C 651.769531 306.210938 639.515625 307.429688 626.566406 306.5625 C 619.453125 305.710938 612.722656 303.753906 606.421875 300.3125 L 604.636719 299.382812 C 598.960938 296.242188 594.457031 292.078125 590.96875 286.59375 C 583.664062 273.453125 583.996094 260.269531 584.058594 245.625 L 584.066406 240.25 C 584.070312 236.039062 584.082031 231.828125 584.09375 227.617188 C 584.109375 222.816406 584.117188 218.015625 584.125 213.21875 C 584.140625 203.355469 584.164062 193.496094 584.195312 183.636719 M 705.757812 183.636719 C 713.105469 183.589844 720.457031 183.550781 727.804688 183.53125 C 731.21875 183.519531 734.632812 183.503906 738.046875 183.480469 C 741.347656 183.457031 744.648438 183.445312 747.949219 183.4375 C 749.203125 183.4375 750.457031 183.429688 751.707031 183.417969 C 762.070312 183.328125 771.25 184.167969 780.550781 189.140625 C 786.429688 192.804688 790.910156 197.359375 794.417969 203.320312 C 795.777344 205.964844 796.730469 208.539062 797.449219 211.417969 L 797.878906 212.910156 C 799.652344 220.015625 799.652344 228.261719 797.972656 235.375 C 797.589844 236.65625 797.183594 237.929688 796.753906 239.195312 L 796.167969 241.027344 C 793.789062 247.726562 789.335938 252.632812 784.023438 257.246094 C 778.636719 261.300781 771.808594 263.523438 765.167969 264.433594 C 758.390625 265.039062 751.628906 264.96875 744.832031 264.9375 L 732.152344 264.890625 L 732.152344 304.476562 L 705.757812 304.476562 C 704.738281 302.441406 704.992188 300.660156 705.007812 298.386719 L 705.011719 296.90625 C 705.023438 295.257812 705.035156 293.613281 705.046875 291.964844 L 705.070312 288.433594 C 705.085938 285.234375 705.109375 282.03125 705.132812 278.828125 C 705.15625 275.484375 705.175781 272.140625 705.195312 268.792969 C 705.238281 262.460938 705.277344 256.125 705.320312 249.789062 C 705.371094 242.574219 705.417969 235.363281 705.464844 228.152344 C 705.558594 213.3125 705.65625 198.476562 705.757812 183.636719 M 732.152344 205.859375 L 732.152344 242.667969 L 745.046875 242.800781 L 749.089844 242.855469 C 750.160156 242.863281 751.230469 242.867188 752.300781 242.871094 L 753.953125 242.902344 C 757.636719 242.90625 760.125 242.261719 763.414062 240.585938 C 766.199219 238.839844 768.335938 236.871094 769.9375 233.976562 C 771.492188 230.132812 772.1875 226.46875 772.019531 222.324219 C 771.445312 218.328125 769.871094 214.949219 767.753906 211.546875 C 765.367188 209.226562 762.554688 207.121094 759.324219 206.167969 C 756.894531 205.660156 754.433594 205.777344 751.960938 205.792969 L 750.441406 205.792969 C 748.570312 205.800781 746.699219 205.808594 744.832031 205.816406 Z M 520.460938 182.117188 L 523.113281 182.09375 C 530.953125 182.082031 537.566406 182.910156 544.601562 186.414062 L 546.289062 187.148438 C 551.964844 189.710938 556.3125 193.277344 560.089844 198.230469 C 563.4375 203.292969 565.347656 208.171875 566.132812 214.195312 C 566.222656 216.148438 566.222656 216.148438 566.132812 217.667969 L 565.441406 218.363281 C 563.636719 218.421875 561.855469 218.441406 560.054688 218.429688 L 558.421875 218.425781 C 556.695312 218.421875 554.96875 218.414062 553.242188 218.40625 C 552.070312 218.402344 550.902344 218.398438 549.734375 218.394531 C 546.867188 218.386719 543.996094 218.375 541.128906 218.363281 L 540.558594 217.0625 L 539.8125 215.355469 L 539.070312 213.664062 C 538.121094 211.621094 537.191406 210.214844 535.570312 208.640625 C 531.710938 206.128906 528.519531 204.597656 523.90625 204.304688 C 517.40625 204.050781 517.40625 204.050781 511.171875 205.601562 C 509.765625 206.351562 509.765625 206.351562 508.480469 207.25 L 507.074219 208.191406 C 504.785156 209.929688 503.726562 211.164062 502.574219 213.847656 C 502.210938 216.398438 502.203125 217.976562 502.921875 220.445312 C 503.75 222.496094 504.28125 223.699219 505.699219 225.304688 C 510.800781 228.714844 516.761719 230.050781 522.632812 231.515625 C 524.023438 231.875 525.414062 232.234375 526.804688 232.597656 C 527.726562 232.839844 528.652344 233.078125 529.574219 233.316406 C 541.195312 236.324219 550.753906 238.929688 559.699219 247.328125 C 563.246094 250.917969 565.738281 254.304688 567.160156 259.183594 C 567.710938 261.519531 568.066406 263.886719 568.21875 266.28125 L 568.355469 267.628906 C 568.695312 273.625 566.898438 279.964844 564.703125 285.503906 C 562.316406 290.15625 558.679688 294.574219 554.523438 297.746094 C 553.328125 298.453125 552.105469 299.027344 550.851562 299.617188 L 549.1875 300.605469 C 540.015625 305.792969 529.457031 306.972656 519.070312 306.894531 C 510.683594 306.636719 502.222656 305.25 494.585938 301.699219 C 497.113281 296.429688 499.761719 291.253906 502.707031 286.203125 L 503.480469 284.832031 C 504.234375 283.566406 504.234375 283.566406 505.699219 281.558594 C 507.023438 281.027344 507.023438 281.027344 508.480469 280.867188 C 509.8125 281.382812 511.140625 281.90625 512.464844 282.441406 C 515.257812 283.34375 518.03125 283.25 520.9375 283.210938 L 522.710938 283.234375 C 526.839844 283.214844 530.382812 282.507812 534.179688 280.867188 C 536.429688 279.449219 537.488281 278.359375 538.871094 276.089844 C 539.757812 273.871094 540.285156 272.140625 540.433594 269.753906 C 539.929688 266.890625 539.351562 265.261719 537.480469 263.027344 C 533.945312 260.054688 530.578125 258.152344 526.148438 256.863281 L 524.671875 256.417969 C 520.992188 255.324219 517.28125 254.425781 513.535156 253.597656 C 502.332031 251.074219 492.113281 248.230469 483.296875 240.625 C 479.453125 237.015625 477.460938 233.472656 475.699219 228.5625 C 474.160156 221.566406 474.183594 214.949219 475.832031 207.945312 C 478.070312 201.644531 481.394531 196.789062 486.285156 192.253906 C 492.691406 187.027344 499.816406 183.902344 507.980469 182.570312 C 512.136719 182.050781 516.277344 182.121094 520.460938 182.117188 " fill-opacity="1" fill-rule="nonzero"/><path fill="#fb810c" d="M 448.046875 258.640625 C 456.792969 258.339844 465.472656 259.246094 474.179688 259.988281 C 477.199219 260.242188 480.21875 260.496094 483.238281 260.746094 L 485.449219 260.929688 C 490.617188 261.347656 495.785156 261.667969 500.964844 261.878906 C 503.316406 261.980469 505.53125 262.09375 507.785156 262.808594 C 507.386719 265.289062 506.757812 267.136719 505.492188 269.296875 L 504.488281 271.03125 L 503.398438 272.878906 L 501.105469 276.835938 L 499.917969 278.871094 C 498.140625 281.929688 496.378906 284.996094 494.628906 288.070312 L 493.605469 289.859375 C 490.167969 295.886719 486.746094 301.921875 483.339844 307.964844 C 481.773438 310.746094 480.195312 313.515625 478.609375 316.285156 C 477.332031 316.117188 477.332031 316.117188 475.832031 315.589844 C 474.878906 314.320312 474.878906 314.320312 474.039062 312.683594 L 473.117188 310.90625 L 472.183594 309.035156 L 471.21875 307.171875 C 468.882812 302.613281 468.882812 302.613281 468.882812 301.003906 C 468 301.351562 467.117188 301.699219 466.234375 302.046875 L 464.296875 302.8125 C 462.550781 303.53125 460.820312 304.28125 459.097656 305.058594 C 450.550781 308.875 441.902344 311.480469 432.761719 313.507812 L 430.980469 313.917969 C 425.320312 315.105469 419.679688 315.171875 413.921875 315.15625 L 412.378906 315.152344 C 398.527344 315.089844 386.601562 311.78125 374.417969 305.085938 L 372.328125 303.785156 L 371.632812 302.394531 L 369.550781 301.699219 L 368.855469 300.3125 L 366.773438 299.617188 C 365.542969 298.496094 364.429688 297.359375 363.296875 296.144531 L 361.878906 294.6875 C 356.632812 289.132812 352.636719 282.9375 349.40625 276.003906 L 349.40625 274.613281 L 351.148438 274.5625 C 360.449219 274.121094 369.464844 272.273438 378.582031 270.449219 L 379.578125 272.488281 C 381.820312 276.402344 385.148438 279.96875 388.941406 282.417969 C 390.15625 283.050781 390.15625 283.050781 391.777344 283.644531 L 391.777344 285.03125 C 392.820312 285.351562 393.863281 285.671875 394.90625 285.988281 L 396.664062 286.523438 C 408.070312 289.796875 419.128906 289.78125 430.679688 287.117188 C 439.316406 284.777344 447.914062 281.890625 455.6875 277.394531 C 455.289062 273.839844 453.578125 271.085938 451.867188 268.015625 C 451.289062 266.984375 450.71875 265.949219 450.148438 264.914062 L 449.382812 263.539062 C 448.652344 261.921875 448.332031 260.382812 448.042969 258.640625 " fill-opacity="1" fill-rule="nonzero"/><path fill="#95a8d8" d="M 298.695312 183.636719 L 324.398438 183.636719 L 325.09375 184.332031 C 325.164062 185.867188 325.179688 187.40625 325.179688 188.945312 L 325.183594 190.425781 C 325.1875 192.070312 325.183594 193.71875 325.183594 195.363281 L 325.1875 198.890625 C 325.1875 202.09375 325.1875 205.296875 325.1875 208.5 C 325.183594 211.84375 325.1875 215.1875 325.1875 218.53125 C 325.1875 224.148438 325.1875 229.765625 325.183594 235.382812 C 325.179688 241.882812 325.179688 248.386719 325.183594 254.890625 C 325.1875 260.464844 325.1875 266.039062 325.1875 271.609375 C 325.183594 274.945312 325.1875 278.277344 325.1875 281.609375 C 325.1875 284.742188 325.1875 287.875 325.183594 291.007812 C 325.183594 292.160156 325.183594 293.3125 325.183594 294.46875 C 325.1875 296.035156 325.183594 297.601562 325.179688 299.167969 L 325.179688 301.835938 L 325.09375 303.785156 L 324.398438 304.476562 L 298.695312 304.476562 Z M 298.695312 183.636719 " fill-opacity="1" fill-rule="nonzero"/><path fill="#d46d08" d="M 378.582031 270.449219 L 379.578125 272.488281 C 381.605469 276.082031 384.632812 278.753906 387.609375 281.558594 C 382.847656 284.226562 377.839844 284.671875 372.503906 285.121094 L 370.554688 285.300781 C 366.042969 285.695312 361.574219 285.796875 357.046875 285.726562 L 359.824219 289.894531 L 359.128906 291.28125 C 355.140625 286.59375 352.03125 281.566406 349.40625 276.003906 L 349.40625 274.613281 L 351.148438 274.5625 C 360.28125 274.125 369.691406 270.449219 378.582031 270.449219 " fill-opacity="1" fill-rule="nonzero"/><path fill="#172467" d="M 607.8125 183.636719 L 611.285156 184.332031 L 611.285156 263.503906 L 609.898438 264.199219 C 609.3125 262.160156 609.109375 260.34375 609.097656 258.226562 L 609.078125 256.292969 L 609.070312 254.1875 L 609.054688 251.960938 C 609.039062 250.363281 609.03125 248.765625 609.023438 247.171875 C 609.007812 244.648438 608.988281 242.121094 608.96875 239.597656 C 608.917969 233.328125 608.878906 227.0625 608.835938 220.792969 C 608.800781 215.496094 608.761719 210.199219 608.722656 204.902344 C 608.703125 202.410156 608.6875 199.917969 608.675781 197.425781 L 608.640625 192.863281 L 608.628906 190.753906 L 608.613281 188.828125 L 608.601562 187.152344 C 608.558594 185.582031 608.558594 185.582031 607.8125 183.636719 M 796.757812 227.390625 L 798.839844 227.390625 C 798.8125 234.109375 796.878906 240.140625 793.976562 246.140625 C 792.582031 248.5 791.023438 250.433594 789.113281 252.390625 L 787.53125 254.03125 C 782.550781 258.847656 777.324219 261.34375 770.75 263.328125 C 762.28125 265.390625 753.488281 264.976562 744.832031 264.9375 C 743.597656 264.933594 742.363281 264.929688 741.128906 264.925781 C 738.136719 264.917969 735.144531 264.90625 732.152344 264.890625 L 731.460938 263.503906 L 732.742188 263.46875 C 737.195312 263.347656 741.648438 263.210938 746.097656 263.0625 C 747.753906 263.007812 749.414062 262.960938 751.070312 262.917969 C 765.046875 262.648438 765.046875 262.648438 778.140625 258.203125 C 780.085938 257.253906 780.085938 257.253906 781.472656 257.253906 L 781.472656 255.863281 L 783.035156 254.953125 C 785.132812 253.664062 786.222656 252.226562 787.726562 250.308594 L 789.113281 250.308594 L 789.679688 249.167969 C 790.277344 247.984375 790.882812 246.804688 791.503906 245.632812 C 794.671875 239.515625 796.152344 234.238281 796.757812 227.390625 M 744.441406 203.5625 L 746.773438 203.527344 C 752.566406 203.523438 758.550781 203.945312 763.71875 206.796875 C 766.644531 208.757812 768.683594 211.128906 770.429688 214.171875 C 771.363281 216.28125 771.605469 218.148438 771.75 220.445312 L 771.167969 219.269531 C 768.609375 213.9375 768.609375 213.9375 764.78125 209.523438 C 761.578125 207.480469 758.996094 206.617188 755.179688 206.414062 C 754.109375 206.382812 753.035156 206.359375 751.960938 206.335938 L 750.246094 206.292969 C 748.441406 206.246094 746.636719 206.203125 744.832031 206.164062 L 741.15625 206.074219 C 738.15625 206 735.15625 205.929688 732.152344 205.859375 L 732.152344 221.835938 L 730.765625 221.835938 L 730.765625 205.167969 C 735.652344 203.769531 739.441406 203.546875 744.441406 203.5625 M 705.757812 196.136719 L 706.453125 196.136719 L 707.148438 302.394531 L 712.007812 303.785156 L 712.007812 304.476562 L 705.757812 304.476562 C 704.796875 302.554688 704.988281 301.015625 705.007812 298.863281 L 705.019531 296.128906 L 705.046875 293.113281 C 705.054688 292.058594 705.0625 291.007812 705.066406 289.953125 C 705.085938 287.085938 705.109375 284.21875 705.132812 281.351562 C 705.15625 278.359375 705.175781 275.363281 705.195312 272.371094 C 705.238281 266.699219 705.277344 261.027344 705.320312 255.355469 C 705.371094 248.898438 705.417969 242.441406 705.464844 235.988281 C 705.558594 222.703125 705.65625 209.421875 705.757812 196.136719 M 495.976562 298.226562 L 496.671875 300.3125 C 506.03125 305.0625 516.984375 305.011719 527.234375 304.476562 C 534.097656 304 541.953125 302.855469 547.855469 299.136719 L 549.460938 298.226562 L 551.546875 298.921875 C 545.40625 303.566406 537.789062 305.382812 530.253906 306.390625 C 519.203125 307.554688 506.972656 307.058594 496.625 302.648438 L 494.585938 301.699219 Z M 763.414062 184.332031 C 769.328125 184.460938 774.152344 185.734375 779.390625 188.5 C 785.882812 192.511719 790.554688 197.042969 794.28125 203.691406 C 796.0625 207.027344 796.0625 207.027344 796.0625 208.640625 L 794.671875 208.640625 L 793.90625 207.140625 C 791.730469 202.992188 789.449219 199.621094 786.335938 196.136719 L 786.335938 194.75 L 785.121094 194.179688 C 783.550781 193.355469 782.210938 192.410156 780.777344 191.363281 C 775.574219 187.847656 769.46875 186.421875 763.414062 185.027344 Z M 612.675781 271.144531 L 614.066406 271.144531 C 614.988281 272.261719 614.988281 272.261719 616.019531 273.746094 C 618.136719 276.625 619.96875 278.601562 623.207031 280.234375 C 629.035156 282.703125 634.917969 282.804688 641.15625 282.949219 L 641.15625 283.644531 C 639.1875 283.679688 637.21875 283.710938 635.25 283.730469 L 633.585938 283.765625 C 629.1875 283.800781 625.351562 283.34375 621.332031 281.402344 C 617.703125 278.972656 614.871094 276.351562 612.675781 272.53125 Z M 484.859375 240.585938 L 486.265625 241.375 C 493.257812 245.257812 499.976562 248.453125 507.785156 250.308594 L 507.785156 251.695312 C 500.167969 250.601562 493.351562 248 486.929688 243.8125 L 485.554688 242.667969 Z M 484.859375 240.585938 " fill-opacity="1" fill-rule="nonzero"/><path fill="#d46d08" d="M 390.390625 310.726562 L 391.769531 310.984375 L 393.6875 311.335938 L 395.777344 311.722656 C 397.304688 311.988281 398.835938 312.238281 400.371094 312.46875 L 402.632812 312.8125 L 404.746094 313.117188 L 406.367188 313.507812 L 407.0625 314.894531 C 401.242188 314.628906 395.945312 313.886719 390.390625 312.117188 Z M 390.390625 310.726562 " fill-opacity="1" fill-rule="nonzero"/><path fill="#172467" d="M 561.964844 286.421875 L 563.355469 286.421875 C 562.371094 289.421875 560.898438 291.285156 558.753906 293.582031 L 557.03125 295.441406 L 555.714844 296.839844 L 554.324219 295.449219 L 555.363281 294.28125 L 556.714844 292.757812 L 558.054688 291.246094 C 559.222656 289.957031 559.222656 289.957031 559.882812 288.503906 L 561.273438 288.503906 Z M 507.785156 205.167969 L 509.867188 205.859375 L 503.617188 211.417969 L 502.226562 210.027344 C 504.019531 208.1875 505.640625 206.59375 507.785156 205.167969 " fill-opacity="1" fill-rule="nonzero"/><path fill="#d46d08" d="M 325.09375 248.222656 L 337.597656 248.917969 L 337.597656 249.613281 L 325.09375 250.308594 Z M 441.097656 235.03125 L 443.183594 235.722656 L 438.320312 241.28125 L 436.929688 239.890625 Z M 441.097656 235.03125 " fill-opacity="1" fill-rule="nonzero"/><path fill="#172467" d="M 564.746094 280.171875 L 566.132812 280.171875 C 565.746094 282.492188 565.195312 284.359375 564.050781 286.421875 L 562.660156 285.03125 Z M 564.746094 280.171875 " fill-opacity="1" fill-rule="nonzero"/><path fill="#d66e08" d="M 475.136719 312.8125 L 479.304688 313.507812 L 478.609375 316.285156 L 475.832031 315.589844 Z M 475.136719 312.8125 " fill-opacity="1" fill-rule="nonzero"/><path fill="#d46d08" d="M 498.058594 277.394531 L 499.449219 277.394531 C 499.230469 279 499.230469 279 498.753906 280.867188 C 497.667969 282.125 497.667969 282.125 496.671875 282.949219 L 495.976562 281.558594 C 496.625 280.148438 497.320312 278.757812 498.058594 277.394531 M 370.246094 233.640625 L 371.632812 233.640625 L 370.941406 238.5 L 368.855469 238.5 Z M 448.738281 225.304688 L 450.128906 225.304688 C 449.382812 227.332031 448.894531 228.625 447.351562 230.167969 L 445.960938 228.777344 C 446.851562 227.59375 447.777344 226.4375 448.738281 225.304688 " fill-opacity="1" fill-rule="nonzero"/><path fill="#172467" d="M 474.441406 218.363281 L 476.523438 219.054688 L 475.832031 226 L 475.136719 226 Z M 474.441406 218.363281 " fill-opacity="1" fill-rule="nonzero"/></g></g></svg>
